<svg width="512" height="394.3" version="1.1" viewBox="0 0 512 394.3" xmlns="http://www.w3.org/2000/svg">
 <path d="m197.2 0c-5.293 0-10.58 2.019-14.62 6.057l-176.5 176.5c-0.453 0.453-0.8771 0.9234-1.279 1.406-0.02573 0.0309-0.05257 0.0607-0.07812 0.0918-0.4074 0.4949-0.7862 1.005-1.141 1.527-0.0129 0.019-0.02623 0.0376-0.03906 0.0566-0.354 0.5251-0.6799 1.063-0.9805 1.611-0.02302 0.042-0.04757 0.0829-0.07031 0.125-0.2873 0.533-0.5461 1.078-0.7832 1.629-0.04138 0.096-0.08504 0.1904-0.125 0.2871-0.02835 0.0688-0.05445 0.138-0.08203 0.207-0.2274 0.5677-0.4322 1.147-0.6094 1.738-0.01479 0.0494-0.02856 0.0989-0.04297 0.1484-0.173 0.5933-0.3215 1.197-0.4414 1.811-0.006596 0.0338-0.01115 0.0678-0.01758 0.1016-0.1174 0.6175-0.2083 1.243-0.2695 1.879-0.002586 0.0267-0.003377 0.0534-0.005859 0.0801-0.05859 0.6343-0.09375 1.276-0.09375 1.926 0 0.6496 0.03516 1.291 0.09375 1.926 0.002483 0.0267 0.003273 0.0534 0.005859 0.0801 0.06144 0.6384 0.1533 1.267 0.2715 1.887 0.005468 0.0287 0.01004 0.0573 0.01562 0.0859 0.1206 0.6184 0.269 1.227 0.4434 1.824 0.01368 0.0469 0.027 0.0938 0.04102 0.1406 0.179 0.5974 0.3851 1.183 0.6152 1.756 0.02295 0.0573 0.04488 0.1148 0.06836 0.1719 0.04408 0.107 0.0909 0.2123 0.1367 0.3184 0.2319 0.5383 0.4858 1.069 0.7656 1.59 0.03566 0.0663 0.07302 0.1314 0.1094 0.1973 0.2885 0.5233 0.6002 1.037 0.9375 1.539 0.03007 0.0448 0.06139 0.0883 0.0918 0.1328 0.3416 0.4999 0.7034 0.99 1.094 1.465 0.0384 0.0468 0.08034 0.0903 0.1191 0.1367 0.382 0.4566 0.7834 0.9022 1.211 1.332 0.01338 0.0135 0.02564 0.0276 0.03906 0.041 0.00719 7e-3 0.01429 0.0143 0.02148 0.0215l176.5 176.5c4.038 4.039 9.332 6.059 14.62 6.059 5.293 0 10.59-2.02 14.62-6.059 8.077-8.077 8.077-21.17 0-29.25l-141.2-141.2h420.7c11.42 0 20.68-9.259 20.68-20.68 0-11.42-9.259-20.68-20.68-20.68h-420.7l141.2-141.2c8.077-8.077 8.077-21.17 0-29.25-4.038-4.038-9.332-6.057-14.62-6.057z"/>
</svg>
