<svg width="512" height="394.3" version="1.1" viewBox="0 0 512 394.3" xmlns="http://www.w3.org/2000/svg">
 <path d="m314.8 0c5.293 0 10.58 2.019 14.62 6.057l176.5 176.5c0.453 0.453 0.8771 0.9234 1.279 1.406 0.0257 0.0309 0.0526 0.0607 0.0781 0.0918 0.4074 0.4949 0.7862 1.005 1.141 1.527 0.0129 0.019 0.0262 0.0376 0.0391 0.0566 0.354 0.5251 0.6799 1.063 0.9805 1.611 0.023 0.042 0.0476 0.0829 0.0703 0.125 0.2872 0.533 0.5461 1.078 0.7832 1.629 0.0414 0.096 0.085 0.1904 0.125 0.2871 0.0283 0.0688 0.0544 0.138 0.082 0.207 0.2274 0.5677 0.4322 1.147 0.6094 1.738 0.0148 0.0494 0.0285 0.0989 0.043 0.1484 0.173 0.5933 0.3215 1.197 0.4414 1.811 7e-3 0.0338 0.0112 0.0678 0.0176 0.1016 0.1174 0.6175 0.2084 1.243 0.2695 1.879 3e-3 0.0267 3e-3 0.0534 6e-3 0.0801 0.0586 0.6343 0.0937 1.276 0.0937 1.926 0 0.6496-0.0352 1.291-0.0937 1.926-2e-3 0.0267-3e-3 0.0534-6e-3 0.0801-0.0614 0.6384-0.1533 1.267-0.2715 1.887-5e-3 0.0287-0.01 0.0573-0.0156 0.0859-0.1206 0.6184-0.269 1.227-0.4434 1.824-0.0137 0.0469-0.027 0.0938-0.041 0.1406-0.179 0.5974-0.3851 1.183-0.6152 1.756-0.0229 0.0573-0.0449 0.1148-0.0684 0.1719-0.0441 0.107-0.0909 0.2123-0.1367 0.3184-0.2319 0.5383-0.4858 1.069-0.7656 1.59-0.0357 0.0663-0.073 0.1314-0.1094 0.1973-0.2885 0.5233-0.6002 1.037-0.9375 1.539-0.0301 0.0448-0.0614 0.0883-0.0918 0.1328-0.3416 0.4999-0.7034 0.99-1.094 1.465-0.0384 0.0468-0.0803 0.0903-0.1191 0.1367-0.382 0.4566-0.7834 0.9022-1.211 1.332-0.0134 0.0135-0.0256 0.0276-0.0391 0.041l-176.5 176.5c-4.038 4.039-9.332 6.059-14.62 6.059-5.293 0-10.59-2.02-14.62-6.059-8.077-8.077-8.077-21.17 0-29.25l141.2-141.2h-420.7c-11.42 0-20.68-9.259-20.68-20.68 0-11.42 9.259-20.68 20.68-20.68h420.7l-141.2-141.2c-8.077-8.077-8.077-21.17 0-29.25 4.038-4.038 9.332-6.057 14.62-6.057z"/>
</svg>
