<svg width="394.3" height="512" version="1.1" viewBox="0 0 394.3 512" xmlns="http://www.w3.org/2000/svg">
 <path d="m0 197.2c0-5.293 2.019-10.58 6.057-14.62l176.5-176.5c0.453-0.453 0.9234-0.8771 1.406-1.279 0.0309-0.0257 0.0607-0.0526 0.0918-0.0781 0.4949-0.4074 1.005-0.7862 1.527-1.141 0.019-0.0129 0.0376-0.0262 0.0566-0.0391 0.5251-0.354 1.063-0.6799 1.611-0.9805 0.042-0.023 0.0829-0.0476 0.125-0.0703 0.533-0.2872 1.078-0.5461 1.629-0.7832 0.096-0.0414 0.1904-0.085 0.2871-0.125 0.0688-0.0283 0.138-0.0544 0.207-0.082 0.5677-0.2274 1.147-0.4322 1.738-0.6094 0.0494-0.0148 0.0989-0.0285 0.1484-0.043 0.5933-0.173 1.197-0.3215 1.811-0.4414 0.0338-7e-3 0.0678-0.0112 0.1016-0.0176 0.6175-0.1174 1.243-0.2084 1.879-0.2695 0.0267-3e-3 0.0534-3e-3 0.0801-6e-3 0.6343-0.0586 1.276-0.0937 1.926-0.0937 0.6496 0 1.291 0.0352 1.926 0.0937 0.0267 2e-3 0.0534 3e-3 0.0801 6e-3 0.6384 0.0614 1.267 0.1533 1.887 0.2715 0.0287 5e-3 0.0573 0.01 0.0859 0.0156 0.6184 0.1206 1.227 0.269 1.824 0.4434 0.0469 0.0137 0.0938 0.027 0.1406 0.041 0.5974 0.179 1.183 0.3851 1.756 0.6152 0.0573 0.0229 0.1148 0.0449 0.1719 0.0684 0.107 0.0441 0.2123 0.0909 0.3184 0.1367 0.5383 0.2319 1.069 0.4858 1.59 0.7656 0.0663 0.0357 0.1314 0.073 0.1973 0.1094 0.5233 0.2885 1.037 0.6002 1.539 0.9375 0.0448 0.0301 0.0883 0.0614 0.1328 0.0918 0.4999 0.3416 0.99 0.7034 1.465 1.094 0.0468 0.0384 0.0903 0.0803 0.1367 0.1191 0.4566 0.382 0.9022 0.7834 1.332 1.211 0.0135 0.0134 0.0276 0.0256 0.041 0.0391l176.5 176.5c4.039 4.038 6.059 9.332 6.059 14.62 0 5.293-2.02 10.59-6.059 14.62-8.077 8.077-21.17 8.077-29.25 0l-141.2-141.2v420.7c0 11.42-9.259 20.68-20.68 20.68-11.42 0-20.68-9.259-20.68-20.68v-420.7l-141.2 141.2c-8.077 8.077-21.17 8.077-29.25 0-4.038-4.038-6.057-9.332-6.057-14.62z"/>
</svg>
