<svg width="18" height="17" version="1.1" viewBox="0 0 18 17" xmlns="http://www.w3.org/2000/svg" preserveAspectRatio="none">
 <path d="m0 0v17h18v-13h0.0039v-4h-0.0039zm0.9961 4h16v12h-16zm2 1.502v8.998h12v-8.998h-9.5zm1.006 0.9961h1.498c-4.23e-5 0.5684-8.43e-5 1.137 0 1.705h-1.498zm2.502 0h1.992c-4.24e-5 0.5684-8.47e-5 1.137 0 1.705h-1.992c-8.42e-5 -0.5683-4.19e-5 -1.137 0-1.705zm2.996 0h2.002c-4.2e-5 0.5684-8.4e-5 1.137 0 1.705h-2.002c-8.43e-5 -0.5683-4.23e-5 -1.137 0-1.705zm2.998 0h1.506v1.705h-1.506c-8.5e-5 -0.5683-4.2e-5 -1.137 0-1.705zm-8.496 2.701h1.498c3.51e-5 0.5338 3.51e-5 1.068 0 1.602h-1.498zm2.502 0h1.992c3.47e-5 0.5338 3.47e-5 1.068 0 1.602h-1.992c3.52e-5 -0.5339 3.52e-5 -1.068 0-1.602zm2.996 0h2.002c3.5e-5 0.5338 3.5e-5 1.068 0 1.602h-2.002c3.51e-5 -0.5339 3.51e-5 -1.068 0-1.602zm2.998 0h1.506v1.602h-1.506c3.5e-5 -0.5339 3.5e-5 -1.068 0-1.602zm-8.496 2.598h1.498c-8.43e-5 0.5691-4.19e-5 1.138 0 1.707h-1.498zm2.502 0h1.992c-8.47e-5 0.5691-4.2e-5 1.138 0 1.707h-1.992c-4.19e-5 -0.569-8.42e-5 -1.138 0-1.707zm2.996 0h2.002c-8.4e-5 0.5691-4.2e-5 1.138 0 1.707h-2.002c-4.19e-5 -0.569-8.43e-5 -1.138 0-1.707zm2.998 0h1.506v1.707h-1.506c-4.2e-5 -0.569-8.5e-5 -1.138 0-1.707z" fill="#ddd"/>
</svg>
