<svg width="384" height="384" version="1.1" viewBox="0 0 384 384" xmlns="http://www.w3.org/2000/svg">
 <path d="m37 0h310c20.5 0 37 16.5 37 37v310c0 20.5-16.5 37-37 37h-310c-20.5 0-37-16.5-37-37v-310c0-20.5 16.5-37 37-37z" fill="#d1d1d1"/>
 <path d="m142.8 51.11c-23.79 0-45.42 9.728-60.53 25.95-16.22 15.13-25.95 36.75-25.95 60.53v114.6c0 23.79 9.728 44.34 25.95 60.53 15.13 15.13 36.75 24.87 60.53 24.87h108.1c23.79 0 45.42-9.728 60.53-24.87 15.13-16.22 24.87-36.75 24.87-60.53v-114.6c0-23.79-9.728-45.42-24.87-60.53-15.13-16.22-36.75-25.95-60.53-25.95zm0 24.86h108.1c17.3 0 32.43 6.493 43.26 17.3 11.9 11.9 18.38 27.02 18.38 44.34v114.6c0 16.22-6.489 32.43-18.38 43.26-10.81 11.9-25.95 18.38-43.26 18.38h-108.1c-17.3 0-32.43-6.489-44.34-18.38-10.81-10.81-18.38-27.02-18.38-43.26v-114.6c0-17.3 7.573-32.43 18.38-44.34 11.9-10.81 27.02-17.3 44.34-17.3zm133 22.7a17.3 17.3 0 0 0-17.29 17.3 17.3 17.3 0 0 0 17.29 17.29 17.3 17.3 0 0 0 17.3-17.29 17.3 17.3 0 0 0-17.3-17.3zm-78.93 21.63c-20.54 0-38.92 7.573-51.89 21.63-14.05 12.97-21.63 31.35-21.63 51.89 0 20.54 7.573 37.84 21.63 51.89 12.97 12.97 31.35 21.62 51.89 21.62 20.54 0 38.92-8.644 51.89-21.62 12.97-14.05 21.63-31.35 21.63-51.89 0-20.54-8.652-38.92-21.63-51.89-12.97-14.05-31.35-21.63-51.89-21.63zm0 23.79c12.97 0 25.96 5.409 34.6 14.06 8.647 9.728 15.13 21.63 15.13 35.67 0 12.97-6.48 25.95-15.13 34.59-8.652 8.647-21.63 14.06-34.6 14.06-14.05 0-25.95-5.409-35.67-14.06-8.647-8.647-14.05-21.62-14.05-34.59 0-14.05 5.401-25.95 14.05-35.67 9.728-8.647 21.63-14.06 35.67-14.06z" fill="#fff"/>
</svg>
