<svg width="678.2" height="980" enable-background="new 0 0 1000 1000" version="1.1" viewBox="0 0 678.2 980" xmlns="http://www.w3.org/2000/svg">
 <g transform="translate(-160.9,-10)">
  <path d="m500 10c-187.3 0-339.1 148.6-339.1 331.9s226.5 426.4 339.1 648.1c117.4-221.7 339.1-464.7 339.1-648.1 0-183.3-151.8-331.9-339.1-331.9z" fill="#1a9f29"/>
  <path d="m500 531.3c-105.4 0-190.8-84-190.8-187.7 0-103.6 85.5-187.6 190.8-187.6s190.8 84 190.8 187.7c0 103.6-85.5 187.6-190.8 187.6z" fill="#fff"/>
  <path d="m500 260.2c-46.8 0-84.8 37.3-84.8 83.4s38 83.4 84.8 83.4 84.8-37.3 84.8-83.4c0-46-38-83.4-84.8-83.4z" fill="#1a9f29"/>
 </g>
</svg>
