<svg width="100" height="100" viewBox="0 0 100 100" xmlns="http://www.w3.org/2000/svg">
 <path d="m13.65 0c-7.495 0-13.65 6.157-13.65 13.65v72.7c0 7.495 6.157 13.65 13.65 13.65h72.7c7.495 0 13.65-6.157 13.65-13.65v-72.7c0-7.495-6.157-13.65-13.65-13.65h-72.7zm0 7.91h72.7c3.25 0 5.742 2.492 5.742 5.742v72.7c0 3.25-2.492 5.742-5.742 5.742h-72.7c-3.25 0-5.742-2.492-5.742-5.742v-72.7c0-3.25 2.492-5.742 5.742-5.742zm9.113 17.39c-3.194 0-5.766 2.453-5.766 5.5s2.571 5.5 5.766 5.5h53.47c3.194 0 5.766-2.453 5.766-5.5s-2.571-5.5-5.766-5.5h-53.47zm0 20.34c-3.194 0-5.766 2.453-5.766 5.5s2.571 5.5 5.766 5.5h53.47c3.194 0 5.766-2.453 5.766-5.5s-2.571-5.5-5.766-5.5h-53.47zm0 19.63c-3.194 0-5.766 2.453-5.766 5.5s2.571 5.5 5.766 5.5h53.47c3.194 0 5.766-2.453 5.766-5.5s-2.571-5.5-5.766-5.5h-53.47z" />
</svg>
