<svg width="1.81mm" height="2.469mm" version="1.1" viewBox="0 0 1.81 2.469" xmlns="http://www.w3.org/2000/svg">
 <path d="m0 1.549h0.2505v0.2152h-0.2505v0.2822h0.2505v0.4233h0.3281v-0.4233h1.108v-0.2822h-1.108v-0.2152h0.2787c0.3528 0 0.5644-0.0847 0.7338-0.254 0.1376-0.1376 0.2187-0.3351 0.2187-0.5503 0-0.2716-0.1129-0.4621-0.2963-0.5891-0.1552-0.1094-0.3492-0.1552-0.6421-0.1552h-0.6209v1.266h-0.2505zm1.468-0.7938c0 0.1552-0.04233 0.2681-0.1411 0.3669-0.1094 0.1129-0.2575 0.1482-0.5256 0.1482h-0.2222v-0.9878h0.2716c0.2081 0 0.3351 0.0247 0.441 0.0953 0.1199 0.0776 0.1764 0.2081 0.1764 0.3775z"/>
</svg>
