<svg width="500" height="500" version="1.1" xmlns="http://www.w3.org/2000/svg">
 <path d="m54.1 0c-30 0-54.15 24.15-54.15 54.15v391.7c0 30 24.15 54.15 54.15 54.15h391.7c30 0 54.15-24.15 54.15-54.15v-391.7c0-30-24.15-54.15-54.15-54.15z" fill="#d1d1d1"/>
 <path d="m263.8 133c4.553-0.0217 10.47 0.7896 14.21 3.384 2.758 1.913 6.386 4.127 6.43 12.75 0.1458 28.21-0.1953 52.77 0.2256 81.57 0.5497 5.993 4.444 8.479 8.123 8.461 3.679-0.0181 7.9-2.318 11.06-5.415 17.09-16.78 36.78-57.14 48.85-83.6 4.503-9.872 11.77-9.239 19.97-9.251 27.45-0.0404 38.57 0.3069 64.31 0.4513 4.713 0.0253 8.82 4.006 10.15 6.882 1.152 2.483 1.977 9.676-4.287 19.86-19.27 31.32-36.99 56.53-58.44 86.3-1.353 1.878-2.638 4.116-2.595 6.43 0.0401 2.116 1.137 4.22 2.595 5.754 19.12 20.12 39.09 40.36 58.66 62.5 5.768 6.522 2.146 16.58 0.5641 19.4-1.199 2.136-6.613 7.642-10.27 7.671-13.3 0.1065-13.34 0-69.04 0-8.25 0-11.54-2.41-15.91-6.995-19.31-20.29-16.93-17.84-38.13-40.5-2.754-2.944-8.212-6.643-13.43-4.287-4.425 2-12.52 4.952-12.52 13.09v28.43c0 5.163-8.102 9.025-12.97 9.025h-37.91c-17.85 0-33.29-4.303-41.85-8.461-36.89-17.91-58.82-42.86-82.81-84.39-20.48-35.46-38.3-70.36-55.84-106.9-1.96-4.087-3.353-13.09 11.28-13.09 15.46 0 29.96-0.3383 53.47-0.3383 6.903 0 11.2 1.39 14.1 3.497 2.906 2.107 4.335 4.917 5.754 7.559 29.25 54.47 29.32 57.81 50.2 84.84 1.961 2.538 4.788 2.922 6.882 2.933 2.588 0.0144 4.981-0.406 6.995-2.031 4.228-3.411 5.415-7.064 5.415-12.3v-55.05c0-6.313-4.276-15.67-9.025-18.61-4.92-2.832-13.01-5.638-12.75-9.138 0.283-3.828 9.191-10.27 25.05-10.27 18.96 0 32.39-0.0144 53.47-0.1126z" fill="#fff"/>
</svg>
